# xmcd
#
# Track frame offsets: 
#        150
#        18638
#        33792
#        51579
#        68992
#        91542
#        106360
#        122415
#        143016
#        159041
#        176072
#
# Disc length: 2581 seconds
#
# Revision: 3
# Processed by: cddbd v1.5.2PL0 Copyright (c) Steve Scherf et al.
# Submitted via: ExactAudioCopyFreeDBPlugin 1.0
#
DISCID=850a130b
DTITLE=Евгений Маргулис и "Шанхай" - 7+1
DYEAR=1998
DGENRE=Blues
TTITLE0=Блюз для Анны
TTITLE1=Да и Нет
TTITLE2=Джаз
TTITLE3=Земляничные поляны
TTITLE4=Егений Маргулис - Когда ты уйдешь
TTITLE5=Я еду по дороге
TTITLE6=Снег
TTITLE7=40 лет
TTITLE8=Подруга номер 5
TTITLE9=Последняя
TTITLE10=Земляничные поляны (remix)
EXTD=
EXTT0=
EXTT1=
EXTT2=
EXTT3=
EXTT4=
EXTT5=
EXTT6=
EXTT7=
EXTT8=
EXTT9=
EXTT10=
PLAYORDER=
